<?xml version="1.0" encoding="utf-8"?>
<!-- Generator: Adobe Illustrator 23.0.5, SVG Export Plug-In . SVG Version: 6.00 Build 0)  -->
<svg version="1.1" id="Слой_1" xmlns="http://www.w3.org/2000/svg" xmlns:xlink="http://www.w3.org/1999/xlink" x="0px" y="0px"
	 viewBox="0 0 103.03 94.45" style="enable-background:new 0 0 103.03 94.45;" xml:space="preserve">
<style type="text/css">
	.st0{clip-path:url(#SVGID_2_);fill:url(#SVGID_3_);}
</style>
<g>
	<defs>
		<path id="SVGID_1_" d="M52.84,42.01c1.15-6.28-1.85-9.78-6.14-11.1l0.05-0.29c3.92-1.46,7.11-6.13,7.86-10.22
			c1.71-9.34-5.86-11.83-15.79-11.83H21.75l-8.7,47.45h18.54C41.81,56.03,51.05,51.79,52.84,42.01z M32.53,18.21h4.23
			c4.09,0,5.77,1.17,5.24,4.09c-0.54,2.92-2.78,4.82-6.87,4.82H30.9L32.53,18.21z M29.21,36.32h5.11c4.96,0,7.06,1.31,6.42,4.82
			s-3.3,5.26-8.26,5.26h-5.11L29.21,36.32z M64.82,8.58h30.66l-1.93,10.51h-18.1l-1.37,7.45h15.48l-1.93,10.51H72.15l-1.55,8.47
			h18.83L87.5,56.03H56.11L64.82,8.58z M27.02,78.26c-0.75,4.11-4.86,7.77-10.91,7.77c-3.06,0-6.37-1.12-8.55-3.47l4.47-4.41
			c1.46,1.38,3.45,2.35,5.24,2.35c1.94,0,2.88-0.64,3.08-1.72c0.21-1.16-0.95-1.53-2.85-2.35l-2.79-1.27
			c-2.42-1.05-4.3-3.25-3.65-6.76c0.76-4.15,5.12-7.54,10.42-7.54c2.76,0,5.63,1.05,7.47,3.25l-3.95,4.03
			c-1.43-1.16-2.74-1.75-4.53-1.75c-1.57,0-2.64,0.56-2.84,1.64c-0.21,1.16,1.09,1.57,3.14,2.43l2.74,1.16
			C26.3,72.81,27.63,74.9,27.02,78.26z M42.85,71.17l6.02,14.42h-7.02l-3.66-9.34l-2.92,3.29l-1.11,6.05h-6.42l4.45-24.27h6.42
			l-1.66,9.04h0.15l7.78-9.04h7.02L42.85,71.17z M54.82,61.31h6.42l-4.45,24.27h-6.42L54.82,61.31z M80.18,61.31h6.33l-4.61,24.27
			h-6.8l-3.5-10.87l-1.37-5.42h-0.16c-0.22,2.76-0.34,6.27-0.91,9.26l-1.33,7.02h-6.33l4.61-24.27h6.8l3.51,10.83l1.36,5.45h0.16
			c0.19-2.61,0.34-6.27,0.91-9.26L80.18,61.31z M92.03,0.01L26.37,0c0,0,0,0,0,0c-7.16,0-13.91,5.86-15.09,13.08L0.18,81.36
			C-1,88.59,3.85,94.45,11.01,94.45l65.65,0.01c0,0,0,0,0,0c7.16,0,13.91-5.86,15.09-13.08l11.11-68.28
			C104.03,5.87,99.19,0.01,92.03,0.01z M98.91,12.45L87.8,80.73c-0.86,5.27-5.96,9.72-11.14,9.72l-65.65-0.01
			c-2.21,0-4.13-0.82-5.4-2.32c-1.34-1.57-1.86-3.75-1.48-6.12l11.11-68.28C16.09,8.45,21.19,4,26.37,4h0l65.65,0.01
			c2.21,0,4.13,0.82,5.4,2.32C98.77,7.9,99.3,10.07,98.91,12.45z"/>
	</defs>
	<clipPath id="SVGID_2_">
		<use xlink:href="#SVGID_1_"  style="overflow:visible;"/>
	</clipPath>
	<linearGradient id="SVGID_3_" gradientUnits="userSpaceOnUse" x1="-4.214" y1="87.0935" x2="106.8796" y2="4.9657">
		<stop  offset="3.409785e-07" style="stop-color:#7A5FEA"/>
		<stop  offset="0.494" style="stop-color:#3C9BF5"/>
		<stop  offset="1" style="stop-color:#00D4FF"/>
	</linearGradient>
	<rect x="-5.45" y="-3.9" class="st0" width="111.63" height="101.28"/>
</g>
</svg>
