<?xml version="1.0" encoding="utf-8"?>
<!-- Generator: Adobe Illustrator 23.0.5, SVG Export Plug-In . SVG Version: 6.00 Build 0)  -->
<svg version="1.1" id="Слой_1" xmlns="http://www.w3.org/2000/svg" xmlns:xlink="http://www.w3.org/1999/xlink" x="0px" y="0px"
	 viewBox="0 0 353 55.16" style="enable-background:new 0 0 353 55.16;" xml:space="preserve">
<style type="text/css">
	.st0{clip-path:url(#SVGID_1_);fill:url(#SVGID_2_);}
</style>
<g>
	<defs>
		<path id="SVGID_4_" d="M28.91,0.98H9.76L0,54.17h20.78c11.46,0,21.82-4.75,23.83-15.71c1.29-7.04-2.08-10.97-6.88-12.44l0.06-0.33
			c4.39-1.64,7.97-6.87,8.81-11.46C48.52,3.76,40.03,0.98,28.91,0.98z M31.05,37.48c-0.72,3.93-3.7,5.89-9.26,5.89h-5.73l2.07-11.29
			h5.73C29.42,32.08,31.77,33.55,31.05,37.48z M32.47,16.37c-0.6,3.27-3.12,5.4-7.7,5.4h-4.75l1.83-9.98h4.75
			C31.18,11.78,33.07,13.09,32.47,16.37z M132.56,38.13c-1.65,9-10.65,17.02-23.91,17.02c-6.71,0-13.95-2.46-18.73-7.61l9.79-9.66
			c3.21,3.03,7.56,5.15,11.49,5.15c4.26,0,6.31-1.39,6.75-3.76c0.47-2.54-2.09-3.36-6.26-5.16l-6.12-2.78
			c-5.31-2.29-9.41-7.12-8-14.81C99.24,7.45,108.79,0,120.41,0c6.06,0,12.35,2.29,16.37,7.12l-8.66,8.84
			c-3.14-2.54-6.01-3.85-9.93-3.85c-3.44,0-5.79,1.23-6.22,3.6c-0.47,2.54,2.4,3.44,6.88,5.32l6,2.54
			C130.99,26.19,133.91,30.77,132.56,38.13z M66.26,32.9l-1.74,9.49h21.11l-2.16,11.78H48.28l9.76-53.19h34.37l-2.16,11.78H69.95
			l-1.53,8.35h17.35L83.61,32.9H66.26z M169.46,22.59l13.19,31.59h-15.38l-8.03-20.46l-6.39,7.2l-2.43,13.26h-14.07l9.76-53.19
			h14.07l-3.63,19.8h0.33l17.05-19.8h15.38L169.46,22.59z M249.52,0.98h13.42l-9.76,53.19h-14.4l-7.42-23.81l-2.9-11.87h-0.33
			c-0.46,6.06-0.72,13.75-1.92,20.29l-2.82,15.39h-13.42l9.76-53.19h14.4l7.43,23.73l2.88,11.95h0.33
			c0.4-5.73,0.72-13.75,1.92-20.29L249.52,0.98z M337.89,11.47c-0.14-0.1-0.18-0.21-0.22-0.35c-0.1-0.43-0.37-0.69-0.81-0.68
			c-0.34,0-0.55-0.15-0.72-0.41c-0.05-0.07-0.11-0.14-0.17-0.2c-0.45-0.52-0.22-0.41-0.93-0.43c-0.01,0-0.01,0-0.02,0
			c-0.15-0.01-0.24,0.06-0.29,0.2c-0.05,0.17-0.11,0.34-0.18,0.51c-0.13,0.34-0.03,0.29-0.42,0.29c-14.18,0-28.36,0-42.54,0
			c-0.05,0-0.11-0.01-0.16,0c-0.12,0.01-0.18-0.03-0.21-0.15c-0.07-0.26-0.15-0.51-0.22-0.77c-0.04-0.14-0.13-0.22-0.28-0.22
			c-0.13,0-0.27,0-0.4,0c-0.17,0-0.27,0.07-0.31,0.24c-0.07,0.26-0.15,0.51-0.22,0.77c-0.03,0.1-0.07,0.13-0.17,0.13
			c-0.14-0.01-0.28,0-0.42,0c-0.38,0-0.69,0.22-0.78,0.59c-0.04,0.18-0.06,0.37-0.06,0.55c-0.01,1.25-0.01,2.5-0.01,3.75
			c0,0.16-0.05,0.34,0.1,0.42c-0.04,0.14-0.09,0.26-0.11,0.38c-0.03,0.22-0.05,0.44-0.08,0.65c-0.01,0.07-0.04,0.14-0.08,0.2
			c-0.15,0.27-0.32,0.54-0.46,0.82c-0.27,0.54,0.12,1.25,0.77,1.23c0.42-0.02,0.85,0.04,1.25,0.19c1.51,0.58,2.47,1.64,2.8,3.23
			c0.14,0.66,0,1.32-0.13,1.97c-0.18,0.92-0.51,1.8-0.86,2.67c-0.52,1.31-1.08,2.61-1.86,3.8c-1.11,1.7-2.04,3.49-2.94,5.31
			c-0.58,1.18-0.96,2.42-1.23,3.7c-0.1,0.49,0.07,0.82,0.47,1.08c0.45,0.28,0.9,0.57,1.35,0.87c0.06,0.04,0.11,0.1,0.15,0.16
			c0.11,0.2,0.25,0.35,0.5,0.38c0.4,0.05,0.79,0.12,1.22,0.19c-0.04,0.08-0.06,0.12-0.09,0.15c-0.16,0.2-0.32,0.4-0.49,0.59
			c-0.31,0.34-0.44,0.73-0.38,1.19c0.04,0.3,0.16,0.44,0.47,0.47c0.57,0.06,1.13,0.11,1.7,0.16c2.75,0.26,5.5,0.49,8.25,0.77
			c0.87,0.09,1.47-0.36,2.07-0.85c0.03-0.02,0.05-0.06,0.07-0.1c0.3-0.46,0.15-0.88-0.38-0.98c-0.42-0.08-0.85-0.11-1.28-0.17
			c-0.05-0.01-0.1-0.06-0.15-0.09c0.05-0.02,0.1-0.06,0.16-0.06c0.46,0,0.92,0.02,1.38,0.02c0.43,0,0.65-0.15,0.72-0.57
			c0.05-0.26,0.02-0.54,0.01-0.81c0-0.75,0.11-1.49,0.35-2.2c0.35-1.03,0.74-2.06,1.13-3.08c0.6-1.59,1.22-3.17,1.84-4.75
			c0.32-0.82,0.61-1.65,0.97-2.45c0.39-0.86,1.09-1.29,2.04-1.31c0.47-0.01,0.88,0.19,1.25,0.44c0.76,0.53,1.62,0.69,2.52,0.67
			c1.23-0.02,2.45-0.07,3.68-0.1c2.12-0.06,4.24-0.12,6.37-0.18c0.38-0.01,0.55-0.22,0.47-0.59c-0.01-0.07-0.04-0.13-0.06-0.2
			c-0.38-0.92-0.62-1.87-0.7-2.87c-0.07-0.91-0.04-1.82,0.2-2.7c0.27-0.97,1.21-1.73,2.15-1.74c2.53-0.04,5.06-0.09,7.59-0.13
			c0.65-0.01,1.29-0.02,1.94-0.04c0.24-0.01,0.5-0.07,0.55-0.31c0.07-0.29,0.23-0.3,0.46-0.28c0.09,0.01,0.17,0,0.26,0
			c0.27,0,0.27,0,0.33,0.26c0.06,0.26,0.12,0.29,0.38,0.24c0.11-0.02,0.23-0.04,0.35-0.04c0.37-0.01,0.73-0.02,1.1-0.02
			c0.27,0,0.47-0.14,0.58-0.38c0.07-0.15,0.1-0.32,0.16-0.48c0.02-0.05,0.08-0.13,0.12-0.12c0.19,0.01,0.27-0.11,0.29-0.26
			c0.08-0.63,0.17-1.27,0.21-1.9c0.04-0.71,0.01-1.43,0.01-2.15c0-0.07,0.02-0.17,0.07-0.22c0.14-0.14,0.21-0.31,0.21-0.5
			c0.02-0.52,0.07-1.05,0.07-1.57c0-0.48-0.03-0.96-0.07-1.44C338.08,11.7,337.99,11.54,337.89,11.47z M319.6,26.02
			c-0.26,1.26-1.24,2.06-2.52,2.08c-1.82,0.03-3.64,0.08-5.46,0.13c-0.83,0.02-1.61-0.12-2.33-0.58c-0.85-0.56-1.65-1.93-1.29-3.27
			c0.04-0.14,0.07-0.17,0.22-0.11c0.54,0.19,1.08,0.36,1.63,0.52c0.12,0.04,0.19,0.08,0.22,0.21c0.02,0.11,0.06,0.21,0.12,0.31
			c0.66,1.17,1.57,2.08,2.82,2.63c0.02,0.01,0.04,0.02,0.06,0.03c0.14,0.04,0.28,0.08,0.38-0.06c0.1-0.14,0.06-0.27-0.04-0.4
			c-0.04-0.05-0.07-0.1-0.1-0.15c0.01-0.02,0.02-0.03,0.03-0.05c0.1,0.03,0.19,0.06,0.29,0.08c0.25,0.06,0.38,0.02,0.48-0.14
			c0.12-0.19,0.11-0.42-0.04-0.6c-0.59-0.68-1.19-1.36-1.78-2.04c-0.07-0.08-0.12-0.19-0.13-0.29c-0.11-0.78-0.11-1.55,0.1-2.32
			c0.05-0.17,0.12-0.24,0.3-0.26c1.35-0.16,2.7-0.35,4.05-0.49c1.6-0.16,2.88,0.9,3.04,2.51C319.73,24.51,319.76,25.27,319.6,26.02z
			 M195.68,0.98h14.07L200,54.17h-14.07L195.68,0.98z M344.74,1.04c0,0-0.01,0-0.01,0L284.32,1.1c-5.52,0.01-10.86,4.4-11.92,9.81
			l-6.53,33.39c-1.06,5.41,2.55,9.79,8.07,9.79c0,0,0.01,0,0.01,0l60.41-0.06c5.52-0.01,10.86-4.4,11.92-9.81l6.53-33.39
			C353.87,5.42,350.26,1.04,344.74,1.04z M347.43,9.78l-6.53,33.39c-0.56,2.86-3.61,5.37-6.53,5.38l-60.41,0.06
			c-1,0-1.8-0.31-2.27-0.87c-0.46-0.56-0.61-1.4-0.42-2.38l6.53-33.39c0.56-2.86,3.61-5.37,6.53-5.38l60.4-0.06h0.01
			c1,0,1.8,0.31,2.27,0.87C347.47,7.96,347.62,8.8,347.43,9.78z"/>
	</defs>
	<clipPath id="SVGID_1_">
		<use xlink:href="#SVGID_4_"  style="overflow:visible;"/>
	</clipPath>
	<linearGradient id="SVGID_2_" gradientUnits="userSpaceOnUse" x1="18.8083" y1="100.6008" x2="350.9133" y2="-58.9514">
		<stop  offset="3.409785e-07" style="stop-color:#7A5FEA"/>
		<stop  offset="1" style="stop-color:#00D4FF"/>
	</linearGradient>
	<rect x="-10.24" y="-45.42" class="st0" width="376.65" height="139"/>
</g>
</svg>
