<?xml version="1.0" encoding="utf-8"?>
<!-- Generator: Adobe Illustrator 23.0.5, SVG Export Plug-In . SVG Version: 6.00 Build 0)  -->
<svg version="1.1" id="Слой_1" xmlns="http://www.w3.org/2000/svg" xmlns:xlink="http://www.w3.org/1999/xlink" x="0px" y="0px"
	 viewBox="0 0 377.05 106.88" style="enable-background:new 0 0 377.05 106.88;" xml:space="preserve">
<style type="text/css">
	.st0{clip-path:url(#SVGID_1_);fill:url(#SVGID_2_);}
</style>
<g>
	<defs>
		<path id="SVGID_4_" d="M121.76,1.5h12.56v17.67h14.16V1.5h12.56v47.45h-12.56V30.11h-14.16v18.83h-12.56V1.5z M167.89,25
			c0-15.62,8.91-24.38,22.04-24.38S211.98,9.45,211.98,25c0,15.62-8.91,24.82-22.05,24.82S167.89,40.62,167.89,25z M199.13,25
			c0-8.61-3.5-13.58-9.2-13.58c-5.69,0-9.2,4.96-9.2,13.58c0,8.61,3.5,14.02,9.2,14.02C195.63,39.02,199.13,33.62,199.13,25z
			 M215.92,43.03l7.15-8.61c3.36,2.7,7.59,4.6,11.1,4.6c3.8,0,5.4-1.24,5.4-3.36c0-2.26-2.41-2.99-6.42-4.6l-5.91-2.48
			c-5.11-2.04-9.56-6.35-9.56-13.21c0-8.1,7.3-14.75,17.67-14.75c5.4,0,11.39,2.04,15.77,6.35l-6.28,7.88
			c-3.21-2.26-5.99-3.43-9.49-3.43c-3.07,0-4.96,1.09-4.96,3.21c0,2.26,2.7,3.07,7.01,4.75l5.77,2.26
			c5.91,2.34,9.27,6.42,9.27,12.99c0,8.03-6.72,15.18-18.54,15.18C227.9,49.82,221.03,47.63,215.92,43.03z M266,12.01h-12.56V1.5
			h37.67v10.51h-12.56v36.94H266V12.01z M295.22,24.75C295.22,9.5,303.5,0,315.15,0s19.94,9.51,19.94,24.75
			c0,15.25-8.29,25.07-19.94,25.07S295.22,40,295.22,24.75z M331.05,24.75c0-13.08-6.35-21.26-15.89-21.26s-15.89,8.19-15.89,21.26
			c0,13.08,6.36,21.58,15.89,21.58S331.05,37.83,331.05,24.75z M344.46,0.88h4.05l19.69,33.19l5.39,9.67h0.29
			c-0.21-4.74-0.49-9.54-0.49-14.26V0.88h3.67v48.07h-4.05l-19.69-33.21l-5.39-9.66h-0.29c0.21,4.66,0.49,9.16,0.49,13.89v28.97
			h-3.67V0.88z M119.71,82.58c0-15.91,10.95-24.96,22.92-24.96c6.28,0,11.39,2.92,14.75,6.28l-6.57,8.03
			c-2.34-2.04-4.67-3.5-7.88-3.5c-5.55,0-10.37,5.11-10.37,13.72c0,8.91,4.09,13.87,10.22,13.87c3.65,0,6.57-1.9,8.61-4.09
			l6.57,7.88c-4.01,4.67-9.49,7.01-15.62,7.01C130.22,106.82,119.71,98.79,119.71,82.58z M157.96,82c0-15.62,8.91-24.38,22.04-24.38
			s22.05,8.83,22.05,24.38c0,15.62-8.91,24.82-22.05,24.82S157.96,97.62,157.96,82z M189.21,82c0-8.61-3.5-13.58-9.2-13.58
			c-5.69,0-9.2,4.96-9.2,13.58c0,8.61,3.5,14.02,9.2,14.02C185.7,96.02,189.21,90.62,189.21,82z M216.66,58.5h15.18l14.45,47.45
			h-13.29l-5.4-23.07c-1.17-4.53-2.34-10.29-3.5-15.04h-0.29c-1.02,4.82-2.19,10.51-3.36,15.04l-5.4,23.07H202.2L216.66,58.5z
			 M212.57,86.16h23.21v9.71h-23.21V86.16z M246.29,100.03l7.15-8.61c3.36,2.7,7.59,4.6,11.1,4.6c3.8,0,5.4-1.24,5.4-3.36
			c0-2.26-2.41-2.99-6.42-4.6l-5.91-2.48c-5.11-2.04-9.56-6.35-9.56-13.21c0-8.1,7.3-14.75,17.67-14.75c5.4,0,11.39,2.04,15.77,6.35
			l-6.28,7.88c-3.21-2.26-5.99-3.43-9.49-3.43c-3.07,0-4.96,1.09-4.96,3.21c0,2.26,2.7,3.07,7.01,4.75l5.77,2.26
			c5.91,2.34,9.27,6.42,9.27,12.99c0,8.03-6.72,15.18-18.54,15.18C258.27,106.82,251.4,104.63,246.29,100.03z M296.37,69.01h-12.56
			V58.5h37.67v10.51h-12.56v36.94h-12.56V69.01z M0,96.25c0-28.49,0-56.98,0-85.47c0.07-0.22,0.16-0.45,0.21-0.68
			C1.12,5.93,3.49,2.92,7.4,1.18c1.03-0.46,2.15-0.69,3.24-1.03c28.49,0,56.98,0,85.47,0c0.23,0.07,0.45,0.16,0.68,0.21
			c5.78,1.15,9.94,6.09,9.94,11.97c0.02,27.44,0.02,54.89,0,82.33c-0.01,6.77-5.43,12.2-12.2,12.2
			c-27.44,0.02-54.89,0.02-82.33-0.01c-4.04,0-7.29-1.75-9.77-4.93C1.11,100.24,0.52,98.27,0,96.25z M6.72,66.78
			c31.16,0,62.22,0,93.29,0c0-8.88,0-17.69,0-26.55c-31.12,0-62.18,0-93.29,0C6.72,49.1,6.72,57.9,6.72,66.78z M6.67,33.43
			c31.2,0,62.27,0,93.39,0c0-0.35,0-0.62,0-0.9c0-6.6,0.01-13.2,0-19.8c0-3.59-2.34-5.91-5.96-5.91c-27.16,0-54.32,0-81.49,0
			c-3.6,0-5.94,2.33-5.94,5.92c-0.01,4.83,0,9.66,0,14.48C6.67,29.28,6.67,31.32,6.67,33.43z M6.67,73.56c0,0.42,0,0.73,0,1.04
			c0,6.53,0,13.06,0,19.59c0,3.73,2.31,6.01,6.06,6.02c27.09,0,54.18,0,81.28,0c3.74,0,6.04-2.3,6.05-6.03c0-6.53,0-13.06,0-19.59
			c0-0.33-0.03-0.67-0.05-1.02C68.88,73.56,37.84,73.56,6.67,73.56z M53.3,57.94c2.49,0.03,4.46-1.88,4.49-4.35
			c0.03-2.49-1.88-4.46-4.35-4.49c-2.49-0.03-4.46,1.88-4.49,4.35C48.91,55.94,50.82,57.91,53.3,57.94z M84.49,53.51
			c0,2.45,1.99,4.42,4.45,4.42c2.46,0,4.45-1.97,4.45-4.42c0-2.45-1.98-4.42-4.44-4.42C86.48,49.09,84.48,51.07,84.49,53.51z
			 M75.61,53.52c0-2.45-1.99-4.42-4.45-4.43c-2.47,0-4.44,1.96-4.45,4.42c0,2.45,1.98,4.43,4.44,4.43
			C73.62,57.94,75.6,55.97,75.61,53.52z M75.61,22.36c-0.02-2.42-2.04-4.43-4.46-4.43c-2.46,0-4.48,2.06-4.44,4.53
			c0.04,2.43,2.05,4.39,4.49,4.37C73.62,26.81,75.63,24.77,75.61,22.36z M89,17.93c-2.44-0.05-4.53,2.03-4.52,4.47
			c0.02,2.43,2.02,4.42,4.45,4.43c2.44,0,4.44-1.98,4.45-4.41C93.4,19.99,91.44,17.98,89,17.93z M53.33,17.93
			c-2.45,0.03-4.4,2.02-4.39,4.49c0.01,2.46,2,4.43,4.46,4.41c2.45-0.02,4.4-2.01,4.39-4.48C57.77,19.89,55.77,17.9,53.33,17.93z
			 M75.61,89.1c0.01-2.41-1.99-4.44-4.42-4.47c-2.45-0.03-4.5,2.02-4.48,4.5c0.02,2.43,2.02,4.41,4.46,4.41
			C73.59,93.53,75.6,91.53,75.61,89.1z M88.93,84.63c-2.41,0.01-4.44,2.02-4.45,4.44c-0.01,2.46,2.04,4.49,4.51,4.46
			c2.43-0.03,4.4-2.04,4.39-4.48C93.37,86.64,91.35,84.63,88.93,84.63z M53.33,84.63c-2.45,0.03-4.4,2.02-4.38,4.49
			c0.01,2.46,2,4.43,4.46,4.41c2.45-0.02,4.4-2.01,4.39-4.48C57.77,86.59,55.77,84.61,53.33,84.63z"/>
	</defs>
	<clipPath id="SVGID_1_">
		<use xlink:href="#SVGID_4_"  style="overflow:visible;"/>
	</clipPath>
	<linearGradient id="SVGID_2_" gradientUnits="userSpaceOnUse" x1="-9.9015" y1="47.1092" x2="392.5958" y2="47.1092">
		<stop  offset="3.409785e-07" style="stop-color:#7A5FEA"/>
		<stop  offset="1" style="stop-color:#00D4FF"/>
	</linearGradient>
	<rect x="-9.9" y="-25.42" class="st0" width="402.5" height="145.06"/>
</g>
</svg>
