<?xml version="1.0" standalone="no"?>
<!DOCTYPE svg PUBLIC "-//W3C//DTD SVG 20010904//EN"
 "http://www.w3.org/TR/2001/REC-SVG-20010904/DTD/svg10.dtd">
<svg version="1.0" xmlns="http://www.w3.org/2000/svg"
 width="512.000000pt" height="512.000000pt" viewBox="0 0 512.000000 512.000000"
 preserveAspectRatio="xMidYMid meet">
<metadata>
Created by potrace 1.14, written by Peter Selinger 2001-2017
</metadata>
<g transform="translate(0.000000,512.000000) scale(0.100000,-0.100000)"
fill="#000000" stroke="none">
<path d="M0 2560 l0 -2560 2560 0 2560 0 0 2560 0 2560 -2560 0 -2560 0 0
-2560z m4412 1228 c125 -59 205 -174 215 -311 4 -60 -4 -117 -46 -332 -27
-143 -100 -519 -161 -835 -62 -316 -119 -598 -129 -626 -60 -180 -251 -348
-436 -384 -44 -8 -465 -10 -1560 -8 l-1500 3 -60 29 c-115 56 -186 154 -206
286 -11 71 -10 85 30 295 161 840 284 1467 296 1510 49 171 238 345 421 389
50 12 292 14 1569 13 l1510 -2 57 -27z"/>
<path d="M2230 3550 l-915 -5 -53 -30 c-69 -38 -136 -112 -156 -173 -9 -26
-27 -108 -41 -182 -50 -263 -95 -496 -104 -545 -52 -261 -163 -845 -172 -900
-14 -84 -4 -116 43 -145 33 -20 46 -20 1508 -18 l1475 3 48 24 c65 32 138 100
164 153 24 47 25 50 78 333 47 246 108 567 190 988 73 376 78 432 42 465 -50
47 103 45 -2107 32z m-514 -145 l6 -25 1018 0 c1009 0 1018 0 1023 20 7 28 48
26 75 -5 12 -14 30 -25 39 -25 10 0 26 -14 35 -31 21 -36 23 -94 7 -275 -9
-112 -14 -132 -36 -161 -23 -29 -31 -33 -74 -33 -27 0 -49 5 -49 10 0 15 -36
12 -50 -5 -10 -13 -50 -15 -242 -15 -251 0 -281 -6 -315 -56 -25 -39 -25 -188
0 -263 11 -33 15 -57 9 -63 -5 -5 -131 -12 -280 -15 l-270 -6 -51 26 c-112 59
-137 36 -234 -223 -111 -293 -119 -319 -126 -395 l-6 -70 -49 3 c-58 4 -60
-18 -3 -31 49 -12 49 -38 1 -68 l-37 -22 -251 23 c-138 13 -257 27 -263 33
-19 14 -16 41 7 70 24 31 25 37 3 37 -19 0 -140 79 -147 97 -9 21 25 135 65
222 22 46 70 139 109 205 110 193 168 361 150 440 -18 81 -98 156 -168 156
-30 0 -62 21 -62 41 0 6 7 24 17 42 12 24 16 55 14 131 -1 54 1 119 5 143 6
39 11 47 39 59 18 7 35 22 38 34 8 30 45 26 53 -5z"/>
<path d="M2822 2845 c-52 -7 -99 -18 -105 -24 -6 -6 -11 -35 -11 -65 0 -49 3
-57 47 -107 52 -59 58 -84 25 -93 -59 -15 -109 14 -153 88 -19 32 -34 46 -64
54 -52 16 -51 17 -51 -23 0 -58 33 -110 85 -135 44 -21 53 -22 213 -15 119 5
174 11 190 22 83 52 84 225 2 285 -35 25 -72 28 -178 13z"/>
</g>
</svg>
