<?xml version="1.0" standalone="no"?>
<!DOCTYPE svg PUBLIC "-//W3C//DTD SVG 20010904//EN"
 "http://www.w3.org/TR/2001/REC-SVG-20010904/DTD/svg10.dtd">
<svg version="1.0" xmlns="http://www.w3.org/2000/svg"
 width="512.000000pt" height="512.000000pt" viewBox="0 0 512.000000 512.000000"
 preserveAspectRatio="xMidYMid meet">
<metadata>
Created by potrace 1.14, written by Peter Selinger 2001-2017
</metadata>
<g transform="translate(0.000000,512.000000) scale(0.100000,-0.100000)"
fill="#000000" stroke="none">
<path d="M0 2560 l0 -2560 2560 0 2560 0 0 2560 0 2560 -2560 0 -2560 0 0
-2560z m4143 1840 c76 -24 170 -89 209 -146 15 -21 40 -66 55 -99 l28 -60 3
-1480 c2 -1034 -1 -1496 -8 -1532 -34 -162 -169 -298 -328 -332 -70 -15 -2914
-16 -2993 -1 -154 29 -277 141 -328 299 -21 64 -21 72 -21 1531 0 1319 2 1472
16 1521 44 148 143 251 288 300 47 16 155 18 1532 18 1457 1 1483 1 1547 -19z"/>
<path d="M1128 4180 c-45 -13 -87 -49 -111 -93 -22 -41 -22 -48 -22 -427 l0
-385 1605 0 1605 0 3 355 c3 390 -2 436 -48 492 -60 72 42 68 -1564 67 -793 0
-1453 -4 -1468 -9z m1538 -389 c111 -51 114 -214 4 -272 -92 -49 -203 8 -217
111 -7 52 1 82 34 121 49 58 109 72 179 40z m614 -3 c88 -45 112 -149 53 -226
-66 -88 -198 -78 -252 18 -44 80 -11 178 74 216 43 19 75 17 125 -8z m603 8
c104 -43 127 -180 42 -255 -61 -53 -139 -53 -201 1 -128 112 2 320 159 254z"/>
<path d="M1000 3035 c0 -3 0 -209 0 -457 l0 -453 362 -3 c200 -2 921 0 1603 4
l1240 6 -2 452 -3 451 -1600 3 c-880 1 -1600 0 -1600 -3z m1707 -348 c32 -32
37 -43 40 -94 3 -46 0 -65 -16 -91 -63 -100 -212 -95 -263 8 -36 70 -13 154
52 198 29 20 44 23 93 20 51 -4 63 -9 94 -41z m589 23 c76 -48 92 -157 33
-225 -38 -42 -79 -59 -133 -53 -189 22 -174 298 17 298 32 0 61 -7 83 -20z
m614 -2 c40 -27 70 -81 70 -124 0 -46 -40 -114 -80 -136 -44 -24 -124 -20
-163 8 -31 22 -67 90 -67 125 1 42 37 108 72 129 47 28 125 27 168 -2z"/>
<path d="M992 1503 l3 -388 25 -43 c15 -27 42 -54 70 -70 l45 -27 1465 0 1465
0 42 22 c28 15 52 39 70 70 l28 48 0 385 0 385 -1608 3 -1608 2 3 -387z m1674
-12 c54 -24 84 -74 84 -136 0 -62 -30 -112 -84 -136 -53 -24 -80 -24 -131 1
-111 54 -113 212 -5 268 53 27 82 27 136 3z m608 5 c40 -17 72 -56 87 -107 16
-52 -9 -119 -59 -157 -88 -67 -220 -11 -238 100 -8 49 0 80 33 119 47 55 112
72 177 45z m609 0 c104 -43 127 -180 42 -255 -61 -53 -139 -53 -201 1 -128
112 2 320 159 254z"/>
</g>
</svg>
